ffmpeg started on 2016-12-05 at 20:30:38
Report written to "Output/x264/results/ffmpeg/crowd_run_2160p50faster11000k.log"
Command line:
Tools/ffmpeg/ffmpeg -benchmark -y -i Input/y4m/crowd_run_2160p50.y4m -c:v libx264 -preset faster -b:v 11000k -an Output/x264/encoded/crowd_run_2160p50faster11000k.mkv
ffmpeg version N-82227-gdb23fde Copyright (c) 2000-2016 the FFmpeg developers
  built with gcc 5.4.0 (Ubuntu 5.4.0-6ubuntu1~16.04.2) 20160609
  configuration: --prefix=/home/jaroslav/ffmpeg_build --pkg-config-flags=--static --extra-cflags=-I/home/jaroslav/ffmpeg_build/include --extra-ldflags=-L/home/jaroslav/ffmpeg_build/lib --bindir=/home/jaroslav/bin --enable-gpl --enable-libass --enable-libfdk-aac --enable-libfreetype --enable-libmp3lame --enable-libopus --enable-libtheora --enable-libvorbis --enable-libvpx --enable-libx264 --enable-libx265 --enable-nvenc --enable-libmfx --enable-libxvid --enable-libgsm --enable-libopencore-amrnb --enable-version3 --enable-nonfree
  libavutil      55. 35.100 / 55. 35.100
  libavcodec     57. 66.101 / 57. 66.101
  libavformat    57. 57.100 / 57. 57.100
  libavdevice    57.  2.100 / 57.  2.100
  libavfilter     6. 66.100 /  6. 66.100
  libswscale      4.  3.100 /  4.  3.100
  libswresample   2.  4.100 /  2.  4.100
  libpostproc    54.  2.100 / 54.  2.100
Input #0, yuv4mpegpipe, from 'Input/y4m/crowd_run_2160p50.y4m':
  Duration: 00:00:10.00, start: 0.000000, bitrate: 4976642 kb/s
    Stream #0:0: Video: rawvideo (I420 / 0x30323449), yuv420p(progressive), 3840x2160, SAR 1:1 DAR 16:9, 50 fps, 50 tbr, 50 tbn, 50 tbc
[libx264 @ 0x298e1c0] using SAR=1/1
[libx264 @ 0x298e1c0] using cpu capabilities: MMX2 SSE2Fast SSSE3 SSE4.2 AVX FMA3 AVX2 LZCNT BMI2
[libx264 @ 0x298e1c0] profile High, level 5.2
[libx264 @ 0x298e1c0] 264 - core 148 - H.264/MPEG-4 AVC codec - Copyleft 2003-2016 - http://www.videolan.org/x264.html - options: cabac=1 ref=2 deblock=1:0:0 analyse=0x3:0x113 me=hex subme=4 psy=1 psy_rd=1.00:0.00 mixed_ref=0 me_range=16 chroma_me=1 trellis=1 8x8dct=1 cqm=0 deadzone=21,11 fast_pskip=1 chroma_qp_offset=0 threads=6 lookahead_threads=1 sliced_threads=0 nr=0 decimate=1 interlaced=0 bluray_compat=0 constrained_intra=0 bframes=3 b_pyramid=2 b_adapt=1 b_bias=0 direct=1 weightb=1 open_gop=0 weightp=1 keyint=250 keyint_min=25 scenecut=40 intra_refresh=0 rc_lookahead=20 rc=abr mbtree=1 bitrate=11000 ratetol=1.0 qcomp=0.60 qpmin=0 qpmax=69 qpstep=4 ip_ratio=1.40 aq=1:1.00
Output #0, matroska, to 'Output/x264/encoded/crowd_run_2160p50faster11000k.mkv':
  Metadata:
    encoder         : Lavf57.57.100
    Stream #0:0: Video: h264 (libx264) (H264 / 0x34363248), yuv420p, 3840x2160 [SAR 1:1 DAR 16:9], q=-1--1, 11000 kb/s, 50 fps, 1k tbn, 50 tbc
    Metadata:
      encoder         : Lavc57.66.101 libx264
    Side data:
      cpb: bitrate max/min/avg: 0/0/11000000 buffer size: 0 vbv_delay: -1
Stream mapping:
  Stream #0:0 -> #0:0 (rawvideo (native) -> h264 (libx264))
Press [q] to stop, [?] for help
frame=   19 fps=0.0 q=0.0 size=       0kB time=00:00:00.00 bitrate=N/A speed=   0x    frame=   27 fps= 15 q=0.0 size=       0kB time=00:00:00.00 bitrate=N/A speed=   0x    frame=   32 fps= 14 q=34.0 size=       1kB time=-00:00:00.01 bitrate=N/A speed=N/A    frame=   39 fps= 14 q=50.0 size=       1kB time=00:00:00.12 bitrate=  48.5kbits/s speed=0.0436x    frame=   48 fps= 14 q=49.0 size=       1kB time=00:00:00.30 bitrate=  19.5kbits/s speed=0.0909x    frame=   57 fps= 15 q=49.0 size=       1kB time=00:00:00.48 bitrate=  12.2kbits/s speed=0.126x    frame=   66 fps= 15 q=48.0 size=       1kB time=00:00:00.66 bitrate=   8.9kbits/s speed=0.151x    frame=   75 fps= 15 q=48.0 size=       1kB time=00:00:00.84 bitrate=   7.0kbits/s speed=0.172x    frame=   84 fps= 15 q=48.0 size=       1kB time=00:00:01.02 bitrate=   5.7kbits/s speed=0.186x    frame=   93 fps= 15 q=48.0 size=       1kB time=00:00:01.20 bitrate=   4.9kbits/s speed= 0.2x    frame=  102 fps= 16 q=47.0 size=       1kB time=00:00:01.38 bitrate=   4.2kbits/s speed=0.211x    frame=  111 fps= 16 q=47.0 size=       1kB time=00:00:01.56 bitrate=   3.8kbits/s speed=0.22x    frame=  119 fps= 16 q=47.0 size=       1kB time=00:00:01.72 bitrate=   3.4kbits/s speed=0.227x    frame=  126 fps= 16 q=47.0 size=       1kB time=00:00:01.86 bitrate=   3.2kbits/s speed=0.23x    frame=  136 fps= 16 q=47.0 size=       1kB time=00:00:02.06 bitrate=   2.8kbits/s speed=0.238x    frame=  145 fps= 16 q=47.0 size=       1kB time=00:00:02.24 bitrate=   2.6kbits/s speed=0.244x    frame=  154 fps= 16 q=47.0 size=       1kB time=00:00:02.42 bitrate=   2.4kbits/s speed=0.247x    frame=  162 fps= 16 q=46.0 size=       1kB time=00:00:02.58 bitrate=   2.3kbits/s speed=0.25x    frame=  170 fps= 16 q=46.0 size=       1kB time=00:00:02.74 bitrate=   2.1kbits/s speed=0.253x    frame=  178 fps= 16 q=46.0 size=       1kB time=00:00:02.90 bitrate=   2.0kbits/s speed=0.255x    frame=  184 fps= 15 q=46.0 size=       1kB time=00:00:03.02 bitrate=   1.9kbits/s speed=0.253x    frame=  193 fps= 15 q=46.0 size=       1kB time=00:00:03.20 bitrate=   1.8kbits/s speed=0.257x    frame=  202 fps= 15 q=46.0 size=       1kB time=00:00:03.38 bitrate=   1.7kbits/s speed=0.259x    frame=  210 fps= 15 q=46.0 size=    5125kB time=00:00:03.54 bitrate=11856.9kbits/s speed=0.26x    frame=  219 fps= 16 q=46.0 size=    5125kB time=00:00:03.72 bitrate=11283.3kbits/s speed=0.264x    frame=  226 fps= 15 q=46.0 size=    5125kB time=00:00:03.86 bitrate=10874.2kbits/s speed=0.264x    frame=  234 fps= 15 q=46.0 size=    5125kB time=00:00:04.02 bitrate=10441.5kbits/s speed=0.265x    frame=  242 fps= 15 q=46.0 size=    5125kB time=00:00:04.18 bitrate=10041.9kbits/s speed=0.266x    frame=  252 fps= 15 q=46.0 size=    5125kB time=00:00:04.38 bitrate=9583.5kbits/s speed=0.269x    frame=  260 fps= 15 q=46.0 size=    5125kB time=00:00:04.54 bitrate=9245.8kbits/s speed=0.271x    frame=  268 fps= 15 q=46.0 size=    5125kB time=00:00:04.70 bitrate=8931.2kbits/s speed=0.272x    frame=  276 fps= 15 q=43.0 size=    5125kB time=00:00:04.86 bitrate=8637.2kbits/s speed=0.273x    frame=  277 fps= 15 q=46.0 size=    5125kB time=00:00:04.88 bitrate=8601.8kbits/s speed=0.266x    frame=  286 fps= 15 q=46.0 size=    6947kB time=00:00:05.06 bitrate=11245.5kbits/s speed=0.268x    frame=  295 fps= 15 q=46.0 size=    6947kB time=00:00:05.24 bitrate=10859.3kbits/s speed=0.27x    frame=  303 fps= 15 q=46.0 size=    6947kB time=00:00:05.40 bitrate=10537.6kbits/s speed=0.271x    frame=  310 fps= 15 q=46.0 size=    6947kB time=00:00:05.54 bitrate=10271.3kbits/s speed=0.271x    frame=  319 fps= 15 q=46.0 size=    6947kB time=00:00:05.72 bitrate=9948.2kbits/s speed=0.273x    frame=  326 fps= 15 q=46.0 size=    6947kB time=00:00:05.86 bitrate=9710.5kbits/s speed=0.273x    frame=  334 fps= 15 q=46.0 size=    6947kB time=00:00:06.02 bitrate=9452.5kbits/s speed=0.274x    frame=  342 fps= 15 q=46.0 size=    6947kB time=00:00:06.18 bitrate=9207.8kbits/s speed=0.275x    frame=  349 fps= 15 q=46.0 size=    6947kB time=00:00:06.32 bitrate=9003.9kbits/s speed=0.274x    frame=  356 fps= 15 q=46.0 size=    6947kB time=00:00:06.46 bitrate=8808.8kbits/s speed=0.274x    frame=  365 fps= 15 q=46.0 size=    6947kB time=00:00:06.64 bitrate=8570.0kbits/s speed=0.276x    frame=  373 fps= 15 q=46.0 size=    6947kB time=00:00:06.80 bitrate=8368.4kbits/s speed=0.276x    frame=  382 fps= 15 q=46.0 size=    6947kB time=00:00:06.98 bitrate=8152.6kbits/s speed=0.278x    frame=  390 fps= 15 q=46.0 size=    6947kB time=00:00:07.14 bitrate=7969.9kbits/s speed=0.278x    frame=  398 fps= 15 q=46.0 size=    6947kB time=00:00:07.30 bitrate=7795.3kbits/s speed=0.279x    frame=  405 fps= 15 q=46.0 size=    6947kB time=00:00:07.44 bitrate=7648.6kbits/s speed=0.278x    frame=  414 fps= 15 q=46.0 size=    6947kB time=00:00:07.62 bitrate=7468.0kbits/s speed=0.28x    frame=  422 fps= 15 q=46.0 size=    6947kB time=00:00:07.78 bitrate=7314.4kbits/s speed=0.28x    frame=  430 fps= 15 q=46.0 size=    6947kB time=00:00:07.94 bitrate=7167.0kbits/s speed=0.28x    frame=  438 fps= 15 q=46.0 size=    6947kB time=00:00:08.10 bitrate=7025.5kbits/s speed=0.281x    frame=  445 fps= 15 q=46.0 size=    6947kB time=00:00:08.24 bitrate=6906.1kbits/s speed=0.281x    frame=  453 fps= 15 q=46.0 size=    6947kB time=00:00:08.40 bitrate=6774.6kbits/s speed=0.281x    frame=  460 fps= 15 q=46.0 size=    6947kB time=00:00:08.54 bitrate=6663.6kbits/s speed=0.281x    frame=  469 fps= 15 q=46.0 size=    6947kB time=00:00:08.72 bitrate=6526.0kbits/s speed=0.282x    frame=  478 fps= 15 q=46.0 size=   12097kB time=00:00:08.90 bitrate=11133.5kbits/s speed=0.282x    frame=  487 fps= 15 q=46.0 size=   12097kB time=00:00:09.08 bitrate=10912.8kbits/s speed=0.283x    frame=  494 fps= 15 q=46.0 size=   12097kB time=00:00:09.22 bitrate=10747.2kbits/s speed=0.283x    frame=  500 fps= 15 q=-1.0 Lsize=   13648kB time=00:00:09.94 bitrate=11247.1kbits/s speed=0.289x    
video:13644kB audio:0kB subtitle:0kB other streams:0kB global headers:0kB muxing overhead: 0.033082%
bench: utime=120.396s
bench: maxrss=1343732kB
[libx264 @ 0x298e1c0] frame I:2     Avg QP:35.02  size:350172
[libx264 @ 0x298e1c0] frame P:126   Avg QP:44.66  size: 51074
[libx264 @ 0x298e1c0] frame B:372   Avg QP:47.61  size: 18374
[libx264 @ 0x298e1c0] consecutive B-frames:  0.8%  0.0%  0.0% 99.2%
[libx264 @ 0x298e1c0] mb I  I16..4: 23.2% 55.6% 21.2%
[libx264 @ 0x298e1c0] mb P  I16..4:  9.5% 20.5%  0.1%  P16..4: 15.3%  2.1%  0.4%  0.0%  0.0%    skip:52.1%
[libx264 @ 0x298e1c0] mb B  I16..4:  1.2%  1.6%  0.0%  B16..8: 17.6%  1.3%  0.0%  direct: 6.8%  skip:71.5%  L0:44.8% L1:54.2% BI: 1.1%
[libx264 @ 0x298e1c0] final ratefactor: 37.94
[libx264 @ 0x298e1c0] 8x8 transform intra:65.1% inter:83.2%
[libx264 @ 0x298e1c0] coded y,uvDC,uvAC intra: 23.6% 52.4% 14.0% inter: 2.6% 5.5% 0.1%
[libx264 @ 0x298e1c0] i16 v,h,dc,p: 47% 23% 17% 13%
[libx264 @ 0x298e1c0] i8 v,h,dc,ddl,ddr,vr,hd,vl,hu: 18% 13% 38%  6%  5%  5%  5%  6%  5%
[libx264 @ 0x298e1c0] i4 v,h,dc,ddl,ddr,vr,hd,vl,hu: 19% 16% 11%  9%  9%  9%  8%  9%  9%
[libx264 @ 0x298e1c0] i8c dc,h,v,p: 79%  7% 12%  2%
[libx264 @ 0x298e1c0] Weighted P-Frames: Y:1.6% UV:0.0%
[libx264 @ 0x298e1c0] ref P L0: 74.8% 25.2%
[libx264 @ 0x298e1c0] ref B L0: 91.1%  8.9%
[libx264 @ 0x298e1c0] ref B L1: 97.8%  2.2%
[libx264 @ 0x298e1c0] kb/s:11176.52
